<svg xmlns="http://www.w3.org/2000/svg" width="32" height="32" viewBox="0 0 512 512">
  <style>.gold { fill: #D4AF37; }</style>

  <!-- Outer Circle -->
  <path class="gold" d="M256 90c91.7 0 166 74.3 166 166s-74.3 166-166 166S90 347.7 90 256 164.3 90 256 90zm0-30C146.5 60 60 146.5 60 256s86.5 196 196 196 196-86.5 196-196S365.5 60 256 60z"/>

  <!-- Inner Road Shape -->
  <path class="gold" d="M309 167c-38 3-82 16-109 41-10 9-15 20-14 31 1 11 8 22 15 32 4 6 9 12 11 18 3 10 2 21-4 31-9 16-25 30-40 42l34 14c27-19 50-44 58-73 4-16 2-31-6-44-6-10-15-18-22-26-7-8-11-15-11-22 0-6 4-12 10-17 18-15 54-25 88-27zm-11 103c7 10 15 19 19 30 5 14 4 29-2 44-8 20-22 39-37 57l33 14c18-22 33-47 39-73 4-18 2-36-7-52-7-13-18-23-28-33l-17 13z"/>
</svg>
